# xmcd CD database file
#
# Track frame offsets:
#	150
#	63915
#	79437
#	139675
#	159677
#	230562
#	249000
#	254897
#	261197
#	269022
#	276760
#	284272
#
# Disc length: 3907 seconds
#
# Revision: 0
# Processed by: cddbd v1.5.1PL2 Copyright (c) Steve Scherf et al.
# Submitted via: CDex 1.51
#
DISCID=b80f410c
DTITLE=めろ＠ドラマCD まんすりぃ 萌音 - chapter4 〜merry merry X'mas〜
DYEAR=2005
DGENRE=Anime
TTITLE0=第10話 『あわてん坊のサンタクロース』
TTITLE1=鹿野優以/今すぐ kiss me
TTITLE2=第11話 『white snow』
TTITLE3=あこ/フレンズ
TTITLE4=第12話 『merry merry X'mas』
TTITLE5=後藤沙緒里/雪にかいた LOVE LETTER
TTITLE6=着萌＠萌FILE4
TTITLE7=着萌＠小枝FILE4
TTITLE8=着萌＠涼香 FILE3
TTITLE9=着萌＠耀子FILE2
TTITLE10=着萌＠友萌FILE4
TTITLE11=着めろ＠めどれー〜今すぐ kiss me_フレンズ_雪にかいた LOVE LETTER〜
EXTD=YEAR: 2005
EXTT0=
EXTT1=
EXTT2=
EXTT3=
EXTT4=
EXTT5=
EXTT6=
EXTT7=
EXTT8=
EXTT9=
EXTT10=
EXTT11=
PLAYORDER=
